<mxfile host="app.diagrams.net" agent="Mozilla/5.0 (Windows NT 10.0; Win64; x64) AppleWebKit/537.36 (KHTML, like Gecko) Chrome/135.0.0.0 Safari/537.36" version="26.2.10">
  <diagram name="Pagina-1" id="ZpzID8mCrmCJM-4OHz3P">
    <mxGraphModel dx="1226" dy="1102" grid="1" gridSize="10" guides="1" tooltips="1" connect="1" arrows="1" fold="1" page="1" pageScale="1" pageWidth="827" pageHeight="1169" math="0" shadow="0">
      <root>
        <mxCell id="0" />
        <mxCell id="1" parent="0" />
        <mxCell id="sebuSS2VXyogjmT8ZFDJ-1" value="DB" style="shape=cylinder3;whiteSpace=wrap;html=1;boundedLbl=1;backgroundOutline=1;size=15;" vertex="1" parent="1">
          <mxGeometry x="460" y="560" width="60" height="80" as="geometry" />
        </mxCell>
        <mxCell id="sebuSS2VXyogjmT8ZFDJ-34" style="edgeStyle=orthogonalEdgeStyle;rounded=0;orthogonalLoop=1;jettySize=auto;html=1;exitX=1;exitY=0.5;exitDx=0;exitDy=0;entryX=0;entryY=0.5;entryDx=0;entryDy=0;" edge="1" parent="1" source="sebuSS2VXyogjmT8ZFDJ-2" target="sebuSS2VXyogjmT8ZFDJ-6">
          <mxGeometry relative="1" as="geometry">
            <mxPoint x="515" y="390" as="targetPoint" />
          </mxGeometry>
        </mxCell>
        <mxCell id="sebuSS2VXyogjmT8ZFDJ-42" style="edgeStyle=orthogonalEdgeStyle;rounded=0;orthogonalLoop=1;jettySize=auto;html=1;exitX=1;exitY=0.5;exitDx=0;exitDy=0;entryX=0.5;entryY=0;entryDx=0;entryDy=0;" edge="1" parent="1" source="sebuSS2VXyogjmT8ZFDJ-2" target="sebuSS2VXyogjmT8ZFDJ-35">
          <mxGeometry relative="1" as="geometry" />
        </mxCell>
        <mxCell id="sebuSS2VXyogjmT8ZFDJ-2" value="Compress" style="rounded=0;whiteSpace=wrap;html=1;" vertex="1" parent="1">
          <mxGeometry x="190" y="360" width="120" height="60" as="geometry" />
        </mxCell>
        <mxCell id="sebuSS2VXyogjmT8ZFDJ-32" style="edgeStyle=orthogonalEdgeStyle;rounded=0;orthogonalLoop=1;jettySize=auto;html=1;exitX=1;exitY=0.5;exitDx=0;exitDy=0;" edge="1" parent="1" source="sebuSS2VXyogjmT8ZFDJ-3" target="sebuSS2VXyogjmT8ZFDJ-6">
          <mxGeometry relative="1" as="geometry" />
        </mxCell>
        <mxCell id="sebuSS2VXyogjmT8ZFDJ-3" value="Auth" style="rounded=0;whiteSpace=wrap;html=1;" vertex="1" parent="1">
          <mxGeometry x="190" y="210" width="120" height="60" as="geometry" />
        </mxCell>
        <mxCell id="sebuSS2VXyogjmT8ZFDJ-39" style="edgeStyle=orthogonalEdgeStyle;rounded=0;orthogonalLoop=1;jettySize=auto;html=1;exitX=1;exitY=0.5;exitDx=0;exitDy=0;entryX=0;entryY=0.5;entryDx=0;entryDy=0;" edge="1" parent="1" source="sebuSS2VXyogjmT8ZFDJ-4" target="sebuSS2VXyogjmT8ZFDJ-35">
          <mxGeometry relative="1" as="geometry" />
        </mxCell>
        <mxCell id="sebuSS2VXyogjmT8ZFDJ-4" value="Report" style="rounded=0;whiteSpace=wrap;html=1;" vertex="1" parent="1">
          <mxGeometry x="190" y="490" width="120" height="60" as="geometry" />
        </mxCell>
        <mxCell id="sebuSS2VXyogjmT8ZFDJ-43" style="edgeStyle=orthogonalEdgeStyle;rounded=0;orthogonalLoop=1;jettySize=auto;html=1;exitX=0.5;exitY=1;exitDx=0;exitDy=0;entryX=0.5;entryY=0;entryDx=0;entryDy=0;" edge="1" parent="1" source="sebuSS2VXyogjmT8ZFDJ-6" target="sebuSS2VXyogjmT8ZFDJ-23">
          <mxGeometry relative="1" as="geometry" />
        </mxCell>
        <mxCell id="sebuSS2VXyogjmT8ZFDJ-6" value="Nginx Web Server" style="rounded=0;whiteSpace=wrap;html=1;" vertex="1" parent="1">
          <mxGeometry x="550" y="360" width="120" height="60" as="geometry" />
        </mxCell>
        <mxCell id="sebuSS2VXyogjmT8ZFDJ-18" value="" style="endArrow=none;dashed=1;html=1;dashPattern=1 3;strokeWidth=2;rounded=0;" edge="1" parent="1">
          <mxGeometry width="50" height="50" relative="1" as="geometry">
            <mxPoint x="160" y="638" as="sourcePoint" />
            <mxPoint x="160" y="190" as="targetPoint" />
          </mxGeometry>
        </mxCell>
        <mxCell id="sebuSS2VXyogjmT8ZFDJ-19" value="" style="endArrow=none;dashed=1;html=1;dashPattern=1 3;strokeWidth=2;rounded=0;" edge="1" parent="1">
          <mxGeometry width="50" height="50" relative="1" as="geometry">
            <mxPoint x="160" y="640" as="sourcePoint" />
            <mxPoint x="720" y="640" as="targetPoint" />
          </mxGeometry>
        </mxCell>
        <mxCell id="sebuSS2VXyogjmT8ZFDJ-20" value="" style="endArrow=none;dashed=1;html=1;dashPattern=1 3;strokeWidth=2;rounded=0;" edge="1" parent="1">
          <mxGeometry width="50" height="50" relative="1" as="geometry">
            <mxPoint x="720" y="635" as="sourcePoint" />
            <mxPoint x="720" y="190" as="targetPoint" />
          </mxGeometry>
        </mxCell>
        <mxCell id="sebuSS2VXyogjmT8ZFDJ-21" value="" style="endArrow=none;dashed=1;html=1;dashPattern=1 3;strokeWidth=2;rounded=0;fillColor=#a20025;strokeColor=#6F0000;" edge="1" parent="1">
          <mxGeometry width="50" height="50" relative="1" as="geometry">
            <mxPoint x="160" y="190" as="sourcePoint" />
            <mxPoint x="720" y="190" as="targetPoint" />
          </mxGeometry>
        </mxCell>
        <mxCell id="sebuSS2VXyogjmT8ZFDJ-22" value="Trust Boundary" style="text;html=1;align=center;verticalAlign=middle;resizable=0;points=[];autosize=1;strokeColor=none;fillColor=none;" vertex="1" parent="1">
          <mxGeometry x="380" y="150" width="110" height="30" as="geometry" />
        </mxCell>
        <mxCell id="sebuSS2VXyogjmT8ZFDJ-23" value="SSH Service" style="rounded=0;whiteSpace=wrap;html=1;" vertex="1" parent="1">
          <mxGeometry x="550" y="500" width="120" height="60" as="geometry" />
        </mxCell>
        <mxCell id="sebuSS2VXyogjmT8ZFDJ-29" style="edgeStyle=orthogonalEdgeStyle;rounded=0;orthogonalLoop=1;jettySize=auto;html=1;exitX=0.9;exitY=0.5;exitDx=0;exitDy=0;exitPerimeter=0;entryX=0;entryY=0.5;entryDx=0;entryDy=0;" edge="1" parent="1" source="sebuSS2VXyogjmT8ZFDJ-28" target="sebuSS2VXyogjmT8ZFDJ-3">
          <mxGeometry relative="1" as="geometry" />
        </mxCell>
        <mxCell id="sebuSS2VXyogjmT8ZFDJ-30" style="edgeStyle=orthogonalEdgeStyle;rounded=0;orthogonalLoop=1;jettySize=auto;html=1;exitX=0.9;exitY=0.5;exitDx=0;exitDy=0;exitPerimeter=0;entryX=0;entryY=0.5;entryDx=0;entryDy=0;" edge="1" parent="1" source="sebuSS2VXyogjmT8ZFDJ-28" target="sebuSS2VXyogjmT8ZFDJ-2">
          <mxGeometry relative="1" as="geometry" />
        </mxCell>
        <mxCell id="sebuSS2VXyogjmT8ZFDJ-31" style="edgeStyle=orthogonalEdgeStyle;rounded=0;orthogonalLoop=1;jettySize=auto;html=1;exitX=0.9;exitY=0.5;exitDx=0;exitDy=0;exitPerimeter=0;entryX=0;entryY=0.5;entryDx=0;entryDy=0;" edge="1" parent="1" source="sebuSS2VXyogjmT8ZFDJ-28" target="sebuSS2VXyogjmT8ZFDJ-4">
          <mxGeometry relative="1" as="geometry" />
        </mxCell>
        <mxCell id="sebuSS2VXyogjmT8ZFDJ-28" value="" style="shape=actor;whiteSpace=wrap;html=1;" vertex="1" parent="1">
          <mxGeometry x="60" y="340" width="40" height="60" as="geometry" />
        </mxCell>
        <mxCell id="sebuSS2VXyogjmT8ZFDJ-35" value="file storage" style="whiteSpace=wrap;html=1;aspect=fixed;" vertex="1" parent="1">
          <mxGeometry x="395" y="430" width="60" height="60" as="geometry" />
        </mxCell>
        <mxCell id="sebuSS2VXyogjmT8ZFDJ-38" style="edgeStyle=orthogonalEdgeStyle;rounded=0;orthogonalLoop=1;jettySize=auto;html=1;exitX=0.5;exitY=1;exitDx=0;exitDy=0;entryX=0;entryY=0.5;entryDx=0;entryDy=0;entryPerimeter=0;" edge="1" parent="1" source="sebuSS2VXyogjmT8ZFDJ-35" target="sebuSS2VXyogjmT8ZFDJ-1">
          <mxGeometry relative="1" as="geometry" />
        </mxCell>
        <mxCell id="sebuSS2VXyogjmT8ZFDJ-40" style="edgeStyle=orthogonalEdgeStyle;rounded=0;orthogonalLoop=1;jettySize=auto;html=1;exitX=1;exitY=0.5;exitDx=0;exitDy=0;entryX=0.5;entryY=0;entryDx=0;entryDy=0;entryPerimeter=0;" edge="1" parent="1" source="sebuSS2VXyogjmT8ZFDJ-2" target="sebuSS2VXyogjmT8ZFDJ-1">
          <mxGeometry relative="1" as="geometry" />
        </mxCell>
        <mxCell id="sebuSS2VXyogjmT8ZFDJ-41" value="File upload" style="edgeLabel;html=1;align=center;verticalAlign=middle;resizable=0;points=[];" vertex="1" connectable="0" parent="sebuSS2VXyogjmT8ZFDJ-40">
          <mxGeometry x="0.3429" y="-4" relative="1" as="geometry">
            <mxPoint as="offset" />
          </mxGeometry>
        </mxCell>
        <mxCell id="sebuSS2VXyogjmT8ZFDJ-44" value="HENK" style="text;html=1;align=center;verticalAlign=middle;resizable=0;points=[];autosize=1;strokeColor=none;fillColor=none;" vertex="1" parent="1">
          <mxGeometry x="50" y="400" width="60" height="30" as="geometry" />
        </mxCell>
      </root>
    </mxGraphModel>
  </diagram>
</mxfile>
